<svg xmlns="http://www.w3.org/2000/svg" viewBox="0 0 440 96" role="img" aria-labelledby="t d">
<title id="t">Mỹ Anh Portfolio Network</title><desc id="d">Logo chữ MA và Mỹ Anh với màu hồng xanh pastel</desc>
<rect x="2" y="2" width="436" height="92" rx="18" fill="#fffaf0" stroke="#111" stroke-width="4"/>
<g transform="translate(14 14)">
 <rect width="66" height="66" rx="8" fill="#111"/>
 <rect x="33" width="33" height="66" rx="0" fill="#ff8fb3"/>
 <text x="33" y="49" text-anchor="middle" font-family="Arial Black,Arial,sans-serif" font-size="42" font-weight="900" fill="#fff">M</text>
 <text x="50" y="49" text-anchor="middle" font-family="Arial Black,Arial,sans-serif" font-size="42" font-weight="900" fill="#111">A</text>
</g>
<text x="98" y="43" font-family="Arial Black,Arial,sans-serif" font-size="30" font-weight="900" letter-spacing="1" fill="#111">MỸ ANH</text>
<rect x="98" y="53" width="235" height="25" rx="12.5" fill="#b8d9ff" stroke="#111" stroke-width="2"/>
<text x="216" y="70" text-anchor="middle" font-family="Arial,Helvetica,sans-serif" font-size="11" font-weight="800" letter-spacing="2.2" fill="#111">PORTFOLIO NETWORK</text>
<path d="M352 22l4 9 10 1-8 6 2 10-8-5-9 5 3-10-8-6 10-1z" fill="#ffd84d" stroke="#111" stroke-width="2"/>
<g transform="translate(352 57)"><rect width="8" height="8" fill="#111"/><rect x="8" width="8" height="8" fill="#fff"/><rect x="16" width="8" height="8" fill="#111"/><rect y="8" width="8" height="8" fill="#fff"/><rect x="8" y="8" width="8" height="8" fill="#111"/><rect x="16" y="8" width="8" height="8" fill="#fff"/></g>
</svg>